<?xml version="1.0" encoding="UTF-8"?>
<svg id="icon" xmlns="http://www.w3.org/2000/svg" xmlns:xlink="http://www.w3.org/1999/xlink" viewBox="0 0 500 500">
  <defs>
    <style>
      .cls-1 {
        fill: url(#radial-gradient);
      }
    </style>
    <radialGradient id="radial-gradient" cx="250" cy="250" fx="250" fy="250" r="349.5" gradientUnits="userSpaceOnUse">
      <stop offset="0" stop-color="#00fff4"/>
      <stop offset=".1" stop-color="#00f5f1"/>
      <stop offset=".27" stop-color="#00ddec"/>
      <stop offset=".49" stop-color="#01b5e3"/>
      <stop offset=".74" stop-color="#027ed6"/>
      <stop offset="1" stop-color="#043cc8"/>
    </radialGradient>
  </defs>
  <path class="cls-1" d="M84.82,211.75h24.95v24.95h-24.95v-24.95ZM59.88,211.75h24.95v-24.95h-24.95v24.95ZM84.82,186.8h24.95v-24.95h-24.95v24.95ZM59.88,161.86h24.95v-24.95h-24.95v24.95ZM84.82,136.91h24.95v-24.95h-24.95v24.95ZM109.77,111.97h24.95v-24.95h-24.95v24.95ZM134.71,136.91h24.95v-24.95h-24.95v24.95ZM159.66,111.97h24.95v-24.95h-24.95v24.95ZM134.71,87.02h24.95v-24.95h-24.95v24.95ZM184.61,87.02h24.95v-24.95h-24.95v24.95ZM209.55,111.97h24.95v-24.95h-24.95v24.95ZM213.41,212.58h24.95v-24.95h-24.95v24.95ZM209.55,62.07h24.95v-24.95h-24.95v24.95ZM34.93,236.7h24.95v-24.95h-24.95v24.95ZM236.7,415.18v-24.95s-24.95,0-24.95,0v24.95s24.95,0,24.95,0ZM211.75,440.12v-24.95s-24.95,0-24.95,0v24.95s24.95,0,24.95,0ZM186.8,415.18v-24.95s-24.95,0-24.95,0v24.95s24.95,0,24.95,0ZM161.86,440.12v-24.95s-24.95,0-24.95,0v24.95s24.95,0,24.95,0ZM136.91,415.18v-24.95s-24.95,0-24.95,0v24.95s24.95,0,24.95,0ZM111.97,390.23v-24.95s-24.95,0-24.95,0v24.95s24.95,0,24.95,0ZM136.91,365.29v-24.95s-24.95,0-24.95,0v24.95s24.95,0,24.95,0ZM111.97,340.34v-24.95s-24.95,0-24.95,0v24.95s24.95,0,24.95,0ZM87.02,365.29v-24.95s-24.95,0-24.95,0v24.95s24.95,0,24.95,0ZM87.02,315.39v-24.95s-24.95,0-24.95,0v24.95s24.95,0,24.95,0ZM111.97,290.45v-24.95s-24.95,0-24.95,0v24.95s24.95,0,24.95,0ZM62.07,290.45v-24.95s-24.95,0-24.95,0v24.95s24.95,0,24.95,0ZM236.7,465.07v-24.95s-24.95,0-24.95,0v24.95s24.95,0,24.95,0ZM415.18,263.3h-24.95s0,24.95,0,24.95h24.95s0-24.95,0-24.95ZM440.12,288.25h-24.95s0,24.95,0,24.95h24.95s0-24.95,0-24.95ZM390.23,388.03h-24.95s0,24.95,0,24.95h24.95s0-24.95,0-24.95ZM340.34,388.03h-24.95s0,24.95,0,24.95h24.95s0-24.95,0-24.95ZM365.29,412.98h-24.95s0,24.95,0,24.95h24.95s0-24.95,0-24.95ZM315.39,412.98h-24.95s0,24.95,0,24.95h24.95s0-24.95,0-24.95ZM290.45,388.03h-24.95s0,24.95,0,24.95h24.95s0-24.95,0-24.95ZM290.45,437.93h-24.95s0,24.95,0,24.95h24.95s0-24.95,0-24.95ZM465.07,263.3h-24.95s0,24.95,0,24.95h24.95s0-24.95,0-24.95ZM263.3,84.82v24.95s24.95,0,24.95,0v-24.95s-24.95,0-24.95,0ZM288.25,59.88v24.95s24.95,0,24.95,0v-24.95s-24.95,0-24.95,0ZM313.2,84.82v24.95s24.95,0,24.95,0v-24.95s-24.95,0-24.95,0ZM338.14,59.88v24.95s24.95,0,24.95,0v-24.95s-24.95,0-24.95,0ZM363.09,84.82v24.95s24.95,0,24.95,0v-24.95s-24.95,0-24.95,0ZM388.03,109.77v24.95s24.95,0,24.95,0v-24.95s-24.95,0-24.95,0ZM363.09,134.71v24.95s24.95,0,24.95,0v-24.95s-24.95,0-24.95,0ZM388.03,159.66v24.95s24.95,0,24.95,0v-24.95s-24.95,0-24.95,0ZM412.98,134.71v24.95s24.95,0,24.95,0v-24.95s-24.95,0-24.95,0ZM412.98,184.61v24.95s24.95,0,24.95,0v-24.95s-24.95,0-24.95,0ZM388.03,209.55v24.95s24.95,0,24.95,0v-24.95s-24.95,0-24.95,0ZM437.93,209.55v24.95s24.95,0,24.95,0v-24.95s-24.95,0-24.95,0ZM263.3,34.93v24.95s24.95,0,24.95,0v-24.95s-24.95,0-24.95,0ZM263.3,187.63v24.95s72.48,0,72.48,0v-24.95s-72.48,0-72.48,0ZM164.22,237.53v24.95s171.57,0,171.57,0v-24.95s-171.57,0-171.57,0ZM164.22,287.42v24.95s83.65,0,83.65,0v-24.95s-83.65,0-83.65,0Z"/>
</svg>